<svg xmlns="http://www.w3.org/2000/svg" viewBox="0 0 24 24" fill="currentCollor">
    <path d="M12 1.006C8.2 1.006 3.754 3.36 3.754 10c0 6.53 7.6 12.63 7.926 12.887a.517.517 0 0 0 .64 0c.324-.257 7.926-6.357 7.926-12.887 0-6.64-4.446-8.994-8.246-8.994zm0 20.8C10.563 20.58 4.785 15.309 4.785 10c0-5.875 3.887-7.96 7.215-7.96s7.215 2.081 7.215 7.96c0 5.3-5.778 10.578-7.215 11.808z" />
    <path d="M14.334 6.288A2.177 2.177 0 0 0 12 6.726a2.177 2.177 0 0 0-2.334-.438 2.452 2.452 0 0 0-1.379 1.637 2.166 2.166 0 0 0 .375 1.852 40.722 40.722 0 0 0 2.994 2.905.514.514 0 0 0 .688 0 40.722 40.722 0 0 0 2.994-2.905 2.166 2.166 0 0 0 .375-1.852 2.452 2.452 0 0 0-1.379-1.637zm.188 2.86A34.288 34.288 0 0 1 12 11.6a34.288 34.288 0 0 1-2.522-2.452 1.145 1.145 0 0 1-.19-.977 1.427 1.427 0 0 1 .808-.946c.759-.348 1.4.5 1.506.543a.533.533 0 0 0 .8 0c.008-.009.743-.894 1.506-.543a1.427 1.427 0 0 1 .808.946 1.145 1.145 0 0 1-.194.977z" />
</svg>
