<?xml version="1.0" encoding="UTF-8" standalone="no"?><!DOCTYPE svg PUBLIC "-//W3C//DTD SVG 1.1//EN" "http://www.w3.org/Graphics/SVG/1.1/DTD/svg11.dtd"><svg width="100%" height="100%" viewBox="0 0 18 24" version="1.1" xmlns="http://www.w3.org/2000/svg" xmlns:xlink="http://www.w3.org/1999/xlink" xml:space="preserve" xmlns:serif="http://www.serif.com/" style="fill-rule:evenodd;clip-rule:evenodd;stroke-linejoin:round;stroke-miterlimit:2;"><rect id="ArtBoard1" x="0" y="0" width="17.992" height="23.992" style="fill:none;"/><clipPath id="_clip1"><rect id="ArtBoard11" serif:id="ArtBoard1" x="0" y="0" width="17.992" height="23.992"/></clipPath><g clip-path="url(#_clip1)"><path d="M8.996,0.008c4.146,0 8.996,2.569 8.996,9.812c-0,7.124 -8.294,13.779 -8.647,14.059c-0.204,0.161 -0.494,0.161 -0.698,0c-0.356,-0.28 -8.647,-6.935 -8.647,-14.059c0,-7.243 4.85,-9.812 8.996,-9.812Zm2.546,5.763c-0.867,-0.358 -1.868,-0.17 -2.546,0.478c-0.678,-0.648 -1.679,-0.836 -2.546,-0.478c-0.748,0.333 -1.303,0.992 -1.505,1.786c-0.18,0.7 -0.029,1.445 0.409,2.02c1.034,1.112 2.124,2.169 3.267,3.169c0.212,0.191 0.538,0.191 0.75,0c1.142,-1 2.233,-2.057 3.266,-3.169c0.439,-0.575 0.59,-1.32 0.41,-2.02c-0.202,-0.794 -0.757,-1.453 -1.505,-1.786Zm0.205,3.12c-0.87,0.938 -1.789,1.831 -2.751,2.675c-0.962,-0.844 -1.881,-1.737 -2.751,-2.675c-0.228,-0.305 -0.305,-0.698 -0.208,-1.066c0.121,-0.46 0.446,-0.841 0.882,-1.032c0.828,-0.38 1.527,0.545 1.643,0.592c0.11,0.126 0.269,0.198 0.436,0.198c0.167,-0 0.326,-0.072 0.436,-0.198c0.009,-0.009 0.811,-0.975 1.643,-0.592c0.436,0.191 0.762,0.572 0.882,1.032c0.096,0.369 0.018,0.762 -0.212,1.066Z" style="fill:#5f2234;"/></g></svg>