<?xml version="1.0" encoding="UTF-8" standalone="no"?><!DOCTYPE svg PUBLIC "-//W3C//DTD SVG 1.1//EN" "http://www.w3.org/Graphics/SVG/1.1/DTD/svg11.dtd"><svg width="100%" height="100%" viewBox="0 0 563 473" version="1.1" xmlns="http://www.w3.org/2000/svg" xmlns:xlink="http://www.w3.org/1999/xlink" xml:space="preserve" xmlns:serif="http://www.serif.com/" style="fill-rule:evenodd;clip-rule:evenodd;stroke-linecap:round;stroke-linejoin:round;stroke-miterlimit:1.5;"><rect id="Artboard1" x="0" y="-0" width="562.5" height="472.5" style="fill:none;"/><g id="Amazing-Artur" serif:id="Amazing Artur"><ellipse cx="267.313" cy="406.332" rx="143.319" ry="39.577" style="fill:#ccc;stroke:#000;stroke-width:2px;"/><path id="black" d="M446.771,342.651c-10.972,-3.131 -25.277,-8.582 -31.494,-13.414c-15.004,-11.661 -22.103,-18.71 -27.636,-21.803c-3.333,10.407 -11.742,25.139 -14.913,28.971c-12.252,14.803 -12.059,19.911 -16.297,26.215c-2.531,3.766 -10.589,15.2 -13.414,23.236c-2.923,8.317 -0.97,13.8 0.938,20.476l-161.598,-0.238c3.096,-8.892 13.671,-23.49 20.535,-31.762c6.948,-8.374 15.592,-22.506 17.637,-31.791c1.076,-4.884 4.509,-19.375 3.884,-44.029c-0.453,-17.838 -4.833,-34.58 -9.863,-45.175c-5.084,-10.711 -6.997,-28.15 -6.549,-40.648c0.216,-6.038 0.491,-15.155 2.564,-20.561c-5.111,1.16 -14.922,3.137 -27.196,2.613c-5.482,-0.234 -5.843,0.043 -12.99,-1.139c-9.561,-1.58 -24.835,-12.936 -32.629,-14.091c-14.69,-2.177 -22.075,-1.927 -35.093,-10.971c-7.649,-5.314 -19.027,-13.204 -27.633,-23.386c-13.037,-15.423 -12.722,-22.317 -18.017,-29.52c-5.02,-6.828 -13.362,-15.352 -24.481,-23.449c-2.495,-1.817 -4.984,-4.539 -6.625,-5.979c-1.397,-1.226 -4.292,-5.011 -5.4,-8.068c-1.019,-2.814 -2.221,-6.816 -2.528,-9.628c-0.728,-6.654 3.733,-4.703 5.644,-8.516c2.542,-5.07 0.981,-7.697 4.388,-11.156c2.072,-2.103 5.546,-1.711 6.449,-5.248c0.734,-2.878 0.171,-5.398 2.724,-8.069c3.774,-3.948 6.072,-0.498 9.084,-3.688c2.32,-2.459 2.492,-5.689 4.469,-7.341c2.386,-1.993 4.868,-2.999 8.054,-2.918c5.173,0.13 8.245,0.983 11.541,2.607c4.447,2.191 6.433,6.75 7.074,9.614c2.21,3.371 3.973,5.802 5.945,7.475c2.211,1.875 4.554,1.587 6.987,4.191c2.867,3.068 3.995,4.772 5.314,8.167c0.739,1.9 0.903,4.248 -1.489,6.605c-1.984,1.955 -2.319,2.486 -5.212,5.097c-1.089,0.983 0.376,-0.037 -6.107,4.221c2.326,9.074 4.579,15.495 10.11,20.802c5.357,5.14 6.54,6.966 20.073,8.975c8.725,1.296 18.437,2.792 25.424,5.799c10.771,4.636 13.702,8.986 18.853,18.605c7.925,-0.961 11.184,-1.171 17.493,-0.432c6.361,0.745 9.877,1.896 15.269,5.439c2.244,-3.33 5.189,-7.463 18.173,-11.126c8.234,-2.323 22.191,-2.553 30.539,-0.68c10.265,2.303 11.893,3.379 16.997,6.367c5.544,3.245 6.666,7.097 7.047,8.159c0.508,1.412 8.831,7.438 20.648,6.346c6.194,-0.573 10.486,-3.291 11.893,-4.103c-0.728,-2.484 -1.07,-6.48 -1.386,-8.794c-0.721,-5.275 -0.423,-18.041 -0,-22.997c0.2,-2.34 1.047,-8.819 3.647,-11.558c3.625,-3.816 4.08,-4.154 4.328,-7.974c0.31,-4.792 -0.983,-5.177 0.609,-9.014c0.901,-2.172 1.101,-3.917 2.193,-4.476c0.868,-0.445 0.948,-0.363 1.427,-1.196c-0.186,-1.034 -0.149,-3.114 0.957,-6.031c0.558,-1.47 1.467,-6.06 2.868,-7.801c1.265,-1.572 3.639,-4.351 3.593,-5.705c-0.041,-1.192 -1.827,-1.405 -2.242,-4.239c-0.369,-2.52 0.281,-8.269 1.649,-9.829c2.059,-2.349 3.211,-1.696 4.844,-4.065c1.751,-2.541 0.792,-3.218 3.252,-4.534c2.002,-1.071 3.12,-0.281 4.111,-0.538c1.698,-0.442 3.606,-2.608 5.457,-3.243c1.312,-0.451 5.088,-1.276 7.605,-1.09c1.095,0.081 1.403,-0.457 3.489,-0.745c1.344,-0.184 5.171,1.068 8.411,1.312c1.668,0.125 1.964,1.052 4.35,1.05c1.316,-0.001 2.723,-0.292 3.67,-0.237c2.041,0.118 4.165,0.86 7.375,2.039c1.503,0.552 0.41,0.904 3.21,1.751c1.476,0.446 2.116,0.243 3.415,0.747c0.558,0.216 1.928,0.656 3.208,1.813c0.608,0.55 -0.021,0.726 1.811,1.804c1.548,0.912 4.768,1.368 8.222,3.479c1.849,1.131 5.629,6.426 6.36,7.429c1.009,1.384 2.324,0.559 3.093,2.11c1.658,3.341 3.722,5.019 4.456,5.979c1.992,2.608 2.25,5.457 3.53,8.15c0.561,1.179 1.335,4.261 1.653,6.698c0.162,1.235 -0.34,2.785 -0.254,5.085c0.081,2.186 0.555,2.501 0.701,3.937c0.18,1.769 -0.283,1.778 -0.189,3.178c0.058,0.88 0.351,3.922 0.182,6.668c-0.163,2.638 -1.117,3.534 -1.722,8.012c-0.281,2.076 -1.135,4.666 -2.219,6.247c-0.558,0.814 -2.739,4.598 -4.128,7.976c-0.76,1.848 -2.315,4.266 -3.414,5.429c-3.128,3.309 -3.819,3.439 -5.153,5.458c-1.32,1.998 -1.236,1.432 -3.324,4.423c-0.584,0.837 -2.497,3.152 -4.443,4.955c-1.941,1.798 -4.673,3.43 -6.234,4.425c-2.075,1.323 -4.417,4.539 -5.278,7.084c-2.385,7.042 -3.275,14.476 1.611,27.859c9.601,1.706 15.822,4.647 24.546,10.906c6.161,4.42 13.849,12.34 18.286,19.627c3.296,5.412 4.84,10.27 7.114,20.538c2.078,9.382 0.191,24.012 -5.092,33.372c4.177,1.675 8.725,10.913 10.456,14.796c1.99,4.463 5.014,12.368 6.075,17.293c4.815,0.653 10.17,3.707 14.631,6.68c4.98,3.318 10.369,8.594 15.247,13.228c15.956,15.159 34.154,16.823 37.232,15.348c5.968,-2.859 9.583,-5.771 16.119,-8.174c1.097,-0.404 2.345,-0.387 3.701,0.003c0,0 16.556,0.889 22.048,12.781c5.339,11.565 4.188,12.127 -0,18.327c2.568,3.1 0.108,9.409 -5.723,10.276c0.85,0.793 -1.954,8.474 -7.816,8.226c0.196,1.969 -5.154,6.933 -12.49,3.82c0,-0 -4.941,-1.81 -11.807,-3.866c-6.866,-2.057 -12.293,-7.101 -12.293,-7.101c-0,0 -31.518,-4.566 -44.121,-8.162Z"/><path id="dim-grey" d="M299.611,138.88c-0.258,-0.117 -0.476,-0.307 -0.633,-0.559c-1.257,-2.009 -3.049,-8.359 -3.647,-12.733c-0.722,-5.276 -0.948,-13.951 -0.68,-18.917c0.199,-3.7 0.502,-6.662 1.608,-10.199c2.009,-6.428 6.022,-8.241 6.366,-12.054c0.311,-3.432 -0.637,-8.809 0.68,-10.694c0.612,-0.875 2.164,-0.346 3.145,-0.617c0.938,-0.259 1.79,-1.22 2.74,-1.008c1.268,0.283 3.536,2.663 4.863,2.708c1.314,0.043 3.203,0.225 3.098,-2.443c-0.08,-2.042 -1.885,-3.946 -3.399,-5.007c-1.38,-0.966 -5.234,-0.412 -5.687,-1.36c-0.454,-0.947 1.181,-2.09 2.287,-5.007c0.558,-1.47 1.999,-4.626 3.4,-6.367c1.264,-1.571 3.25,-3.088 5.007,-4.079c2.081,-1.175 4.954,-3.311 7.479,-3.647c2.524,-0.336 5.065,1.388 7.667,1.631c3.11,0.29 7.639,-0.149 10.996,0.108c3.076,0.235 4.052,-0.281 6.426,0.07c3.061,0.453 8.563,1.645 10.209,2.27c1.701,0.646 6.491,2.601 7.726,5.007c0.724,1.41 1.07,4.709 2.849,5.679c1.473,0.804 3.601,3.392 5.99,3.903c0.764,0.164 3.683,2.391 4.675,2.751c1.227,0.446 3.657,1.367 7.264,3.217c3.602,1.848 3.247,2.075 4.573,3.957c0.532,0.756 1.47,2.613 3.434,4.238c1.37,1.132 1.132,3.771 2.269,4.594c1.373,0.994 0.988,7.312 -0.211,11.223c-0.47,1.533 -4.431,10.328 -5.623,12.238c-2.41,3.863 -3.287,4.093 -6.119,6.862c-2.392,2.34 -2.138,3.25 -4.327,5.439c-0.721,0.722 -2.133,2.525 -4.079,4.328c-1.941,1.798 -2.509,2.377 -4.328,2.719c-1.636,0.308 -1.302,-2.183 -2.287,-1.543c-1.175,0.762 -1.01,2.729 -1.36,4.575c-0.381,2.009 -3.02,4.452 -4.327,6.799c-1.855,3.327 -2.936,7.077 -7.479,9.766c-3.24,1.917 -6.083,3.075 -11.622,2.968c-4.481,-0.088 -10.138,0.154 -13.662,-0c-1.784,-0.079 -4.149,-1.133 -5.984,-1.504c-0.106,-0.204 -0.341,-0.338 -1.443,-0.378c-1.743,-0.064 -1.355,0.027 -2.155,0.002c-1.199,-0.416 -2.282,-1.131 -3.14,-1.316c-0.163,-0.035 -0.328,-0.056 -0.495,-0.066c-0.045,-0.25 -0.185,-0.389 -0.901,-0.295c-0.425,0.056 -0.731,0.226 -0.993,0.401c-0.608,0.045 -1.206,0.041 -1.758,-0.182c-0.447,-0.182 -0.892,-0.53 -1.324,-0.93c-0.351,-0.448 -0.597,-0.812 -0.944,-0.963c-0.015,-0.007 -0.03,-0.013 -0.045,-0.02c-0.442,-0.448 -0.86,-0.852 -1.239,-1.066c-0.724,-0.408 -1.734,-0.003 -2.459,-0.409c-0.048,-0.027 -0.091,-0.062 -0.13,-0.103c-0.011,-0.025 -0.021,-0.051 -0.03,-0.077c-0.065,-0.199 -0.159,-0.369 -0.267,-0.528c-0.157,-0.49 -0.283,-1.099 -0.676,-1.467c-0.605,-0.57 -1.931,-0.478 -2.596,-0.866c-1.523,-0.888 -3.884,-2.02 -5.44,-2.287c-0.53,-0.092 -1.161,0.871 -1.769,1.162c-0.27,0.129 -0.535,0.196 -0.785,0.207c-0.113,-0.113 -0.284,-0.179 -0.708,-0.131Zm26.319,-13.663c-1.334,-0.697 -9.041,-3.452 -11.318,-4.036c-1.068,-0.274 -2.712,0.093 -4.215,-0.14c-0.989,-0.152 -3.053,-1.193 -4.742,-1.301c-1.69,-0.109 -3.229,1.444 -3.229,1.444c-0,-0 2.937,-0.939 3.846,-0.733c0.909,0.207 3.413,1.237 3.966,1.337c0.552,0.1 3.604,0.079 4.807,0.385c1.546,0.393 9.628,3.79 10.885,3.044Zm-14.644,-12.064c-0.005,-0.051 0.972,0.595 0.994,0.218c0.049,-0.83 0.842,-1 0.816,-1.574c-0.019,-0.408 0.002,-0.897 -0.282,-1.339c-0.115,-0.178 -0.487,-0.088 -0.61,-0.383c-0.428,-1.03 -1.436,-0.966 -1.436,-0.966c0,-0 -0.498,-0.645 -1.114,-0.419c-0.617,0.225 -1.202,0.636 -1.673,0.558c-0.471,-0.078 -1.115,0.558 -1.115,0.558c-0,0 -0.455,0.437 -0.558,0.521c-0.103,0.085 -0.217,-0.18 -0.558,0c-0.34,0.181 -0.903,0.214 -1.115,0.595c-0.211,0.382 -1.097,0.162 -1.115,0.558c-0.018,0.397 -0.558,0.559 -0.558,0.559l-1.115,1.116l-0.557,-0l-0.558,0.558l-0.557,-0l-0.558,0.558l-0,0.558c-0,0 -0.292,0.887 -0.558,1.116c-0.266,0.23 0.075,0.219 0,0.559c-0.074,0.34 0.363,0.203 0.558,0.558c0.195,0.355 -0.098,0.538 0.558,0.558c0.655,0.02 0.621,0.171 1.115,-0c0.494,-0.171 0.718,-0.531 1.115,-0.558c0.397,-0.027 0.784,-0.453 1.115,-0.558c0.331,-0.106 1.231,-0.087 1.115,-0.559c-0.116,-0.471 0,-0.558 0,-0.558c0,0 0.978,-0.471 1.115,-0.558c0.138,-0.087 0.056,-0.647 0.558,-0.558c0.502,0.089 0.679,0.261 1.115,0c0.437,-0.261 0.713,-0.537 1.115,-0.558c0.403,-0.021 0.889,0.019 1.036,-0.081c0.147,-0.1 0.549,0.264 0.87,-0.06c0.266,-0.268 0.779,-0.356 0.842,-0.419Zm-0.537,-0.536l0.02,-0.02c-0,-0 -0.015,0.081 -0.02,0.02Zm30.194,-30.115c-0.889,0.351 -0.999,0.535 -1.706,1.101c-0,1.009 0.863,1.888 1.918,1.888c1.054,0 1.911,-0.819 1.911,-1.828c-0,-0.459 -0.177,-0.878 -0.469,-1.199c-0.533,-0.087 -1.203,-0.11 -1.654,0.038Zm-30.398,45.164c-0.156,-0.208 -0.258,-0.036 -0.557,0c-0.3,0.037 -0.067,0.192 -0.558,0c-0.491,-0.192 -0.151,0.258 -0.557,0c-0.406,-0.257 0.072,-0.003 -0.558,0c-0.63,0.004 -0.868,0.062 -1.115,0c-0.248,-0.062 -0.525,-0.183 -0.558,0c-0.032,0.183 0.342,0.282 0,0.558c-0.342,0.277 -0.17,0.399 -0.557,0.559c-0.387,0.159 -0.403,-0.518 -0.558,-0c-0.155,0.517 0.415,1.095 0,1.116c-0.415,0.02 -0.227,-0.298 -0.558,-0c-0.33,0.298 -0.703,0.378 -0.557,0.558c0.146,0.18 0.269,0.545 0.557,0.558c0.289,0.013 0.818,-0.388 1.116,0c0.297,0.388 0.727,0.663 1.115,0.558c0.387,-0.105 0.027,-0.254 0.557,0c0.531,0.254 -0.433,0.618 1.116,0.558c1.548,-0.059 1.373,-0.282 1.672,0c0.3,0.283 -0.014,0.475 0.558,0.558c0.572,0.084 0.697,-0.213 1.115,0c0.418,0.214 0.884,-0.213 1.115,0c0.232,0.214 0.38,-0.148 0.558,0c0.178,0.149 0.481,0.406 0.558,0c0.077,-0.405 -0.143,-0.799 -0,-1.116c0.142,-0.317 0.794,-0.212 0.557,-0.558c-0.236,-0.345 -0.537,0.061 -0.557,-0.558c-0.021,-0.619 -0.427,-0.913 -0.558,-1.116c-0.131,-0.204 -0.202,0.065 -0.558,-0.558c-0.355,-0.624 0.12,-0.069 -0.557,-0.559c-0.677,-0.489 -0.869,-0.545 -1.115,-0.558c-0.246,-0.013 -0.251,0.013 -0.558,0c-0.307,-0.013 -0.401,0.208 -0.558,0Zm5.242,-17.302c-0.279,0.093 -1.573,-0.326 -1.631,0.838c-0.061,1.203 -0.451,0.554 -0.597,1.137c-0.191,0.763 1.014,0.305 1.372,1.317c0.359,1.012 1.892,1.714 1.892,1.714c-0,0 1.699,0.765 2.131,1.275c0.431,0.511 0.518,0.439 2.11,1.375c1.592,0.936 2.864,1.507 3.684,1.913c0.821,0.406 1.292,0.592 1.842,1.076c0.551,0.484 0.352,0.848 1.217,1.51c0.866,0.661 2.337,0.469 2.602,0.909c0.265,0.44 -0.297,0.498 0.703,1.116c0.999,0.618 0.843,1.263 1.898,1.013c1.056,-0.25 1.545,-0.369 1.673,-0.558c0.129,-0.19 0.336,0.075 0.062,-1.24c-0.28,-1.345 -0.577,-0.993 -0.557,-1.674c0.023,-0.796 -0.409,-0.168 -0.558,-1.116c-0.148,-0.949 -0.889,-0.638 -1.115,-1.117c-0.226,-0.478 -0.634,-1.078 -1.673,-1.674c-1.039,-0.595 -1.185,-0.194 -2.23,-1.116c-1.045,-0.922 -0.164,-0.515 -1.673,-1.116c-1.509,-0.602 -1.918,-1.026 -2.788,-1.675c-1.541,-1.149 -1.376,-2.005 -2.788,-2.232c-1.412,-0.228 -1.568,-0.243 -2.23,-0.559c-0.662,-0.315 -0.746,0.046 -1.673,-0.558c-0.927,-0.603 -1.394,-0.651 -1.673,-0.558Zm-7.462,-11.243c-0.689,0.053 -0.469,1.57 -0.354,2.225c0.115,0.656 1.213,1.658 2.291,1.514c1.078,-0.144 0.383,-1.284 0.249,-2.049c-0.134,-0.765 -1.498,-1.743 -2.186,-1.69Zm11.689,2.553c-0.886,-0.638 -6.189,-2.259 -6.354,-1.32c-0.131,0.744 2.727,2.514 5.171,3.618c2.445,1.104 2.319,0.694 3.055,0.168c0.737,-0.526 -0.986,-1.828 -1.872,-2.466Zm-11.219,-21.677c-0.354,0.041 -0.841,0.201 -1.645,0.714c-0,0.99 0.824,1.794 1.84,1.794c1.016,-0 1.841,-0.804 1.841,-1.794c0,-0.259 -0.056,-0.506 -0.159,-0.729c-0.869,-0.071 -1.444,-0.034 -1.877,0.015Zm52.09,2.571c0,0 -2.338,-2.372 -5.772,-5.644c-3.435,-3.271 -2.967,-2.915 -5.707,-3.523c-2.739,-0.609 -14.209,-0.201 -14.209,-0.201c0,-0 -4.512,3.243 5.165,4.059c9.677,0.816 8.74,0.567 10.663,1.418c2.602,1.151 9.86,3.891 9.86,3.891Zm-54.373,15.603c-0.533,-3.595 1.957,-5.764 6.872,-8.448c3.282,-1.792 7.762,-7.593 7.555,-10.833c-0,-0 -1.682,3.746 -3.911,6.357c-3.71,4.346 -7.992,5.136 -9.832,7.306c-2.443,2.881 -1.796,7.228 -0.684,5.618Zm66.851,20.145c0.898,0.693 4.08,0.605 6.005,-0.36c2.09,-1.047 2.849,-1.849 3.393,-3.262c0.563,-1.458 1.581,-3.264 4.431,-5.813c2.838,-2.539 3.236,-4.395 4.103,-6.031c0.846,-1.595 0.902,-5.446 -1.286,-8.132c-1.371,-1.682 -3.531,-2.439 -5.319,-2.724c-1.415,-0.225 -6.535,-0.048 -7.527,2.094c-0,-0 3.169,-1.318 5.029,-1.156c1.86,0.161 4.225,0.806 5.125,1.786c0.9,0.979 2.748,2.764 2.81,4.586c0.083,2.447 -0.806,3.769 -1.389,4.96c-0.806,1.646 -2.299,3.268 -3.186,3.756c-1.463,0.806 -2.406,2.619 -3.125,3.665c-0.719,1.047 -1.689,3.364 -2.74,4.63c-2.075,2.499 -7.243,0.997 -6.324,2.001Zm2.363,-13.369c0.217,0.585 0.461,0.81 0.551,1.265c0.054,0.272 0.096,0.969 -0.226,1.53c-0.365,0.634 -0.53,0.465 -0.782,2.043c0,0 1.427,-0.749 1.834,-1.573c0.406,-0.823 0.486,-1.22 0.03,-1.993c-0.457,-0.774 -1.407,-1.272 -1.407,-1.272Zm-49.73,-6.735c1.118,1.838 2.196,3.108 2.121,4.93c-0.059,1.445 -0.299,3 -2.786,3.705c-0,-0 2.475,0.596 3.289,-1.244c0.814,-1.841 0.411,-3.889 0.155,-4.572c-0.445,-1.189 -2.288,-2.877 -2.779,-2.819Zm-267.85,-74.744c5.718,-0.196 10.53,1.772 13.23,4.08c2.699,2.307 5.475,8.165 6.367,11.806c1.401,5.718 -1.038,9.499 -1.36,12.302c-0.331,2.88 -4.029,5.97 -6.983,7.479c-3.739,1.909 -5.586,0.514 -6.799,-1.976c-0.893,-1.833 -3.046,-4.706 -3.647,-14.278c-0.221,-3.508 -0.27,-5.707 -1.36,-5.871c-1.098,-0.165 -1.716,2.581 -0.744,7.479c0.768,3.87 2.08,10.848 4.511,14.03c2.204,2.883 2.53,7.193 0.68,9.766c-2.956,4.114 -6.601,4.021 -9.086,2.72c-1.738,-0.91 -4.316,-3.121 -5.439,-6.551c-0.989,-3.019 -2.767,-9.547 -3.648,-9.519c-1.288,0.041 -0.713,2.917 0,5.007c0.711,2.081 1.328,4.109 3.584,7.479c2.434,3.637 2.623,6.546 2.719,8.407c0.146,2.814 -1.196,4.874 -2.967,6.119c-2.319,1.63 -6.531,0.586 -8.839,-1.608c-1.325,-1.26 -2.701,-5.167 -3.647,-7.479c-1.37,-3.345 -2.189,-7.773 -3.212,-7.834c-0.727,-0.042 0.321,4.63 0.893,6.218c0.949,2.634 1.608,4.34 2.999,6.807c2.282,4.049 0.714,7.252 0.01,7.956c-1.097,1.098 -3.967,2.31 -7.632,0.348c-1.638,-0.878 -4.436,-3.886 -5.544,-6.944c-1.02,-2.814 -3.02,-8.562 -2.72,-11.374c0.337,-3.155 4.52,-4.59 5.687,-6.799c2.081,-3.935 0.072,-7.057 3.4,-10.014c2.206,-1.961 5.785,-3.463 7.726,-6.367c1.733,-2.592 0.785,-4.777 3.216,-7.727c2.121,-2.574 5.857,-2.593 8.159,-4.327c1.903,-1.435 2.207,-3.988 3.647,-6.119c1.741,-2.576 4.069,-3.122 6.799,-3.216Zm23.695,19.293c5.502,0.026 13.318,9.89 10.447,15.765c-4.949,10.126 -22.19,15.011 -24.044,9.703c-1.923,-5.506 2.585,-7.665 7.91,-11.87c7.082,-5.591 2.733,-13.612 5.687,-13.598Zm375.596,296.222c-7.005,-0.261 -18.395,-2.528 -25.393,-4.933c-5.333,-1.833 -12.519,-5.733 -14.981,-11.798c-1.319,-3.251 0.905,-6.614 -3.232,-9.551c-3.644,-2.587 -5.756,1.799 -15.021,-4.08c-3.862,-2.45 -7.856,-7.616 -8.159,-12.486c-0.326,-5.238 1.87,-6.955 -0.928,-9.518c-1.741,3.101 0.751,11.326 -2.288,18.605c-3.671,8.796 -13.223,25.952 -16.381,29.795c-8.374,10.19 -11.895,20.523 -16.133,26.827c-2.531,3.766 -9.446,12.923 -13.414,20.461c-3.046,5.786 -2.737,16.331 -1.36,24.108l-79.903,-0.197c-0.711,-1.599 -3.655,-11.393 -3.16,-17.831c0.493,-6.411 -1.696,-15.842 -2.601,-18.298c-0.803,-2.177 -3.664,-8.451 -4.523,-8.809c0.339,0.548 1.592,6.328 1.885,7.403c0.75,2.746 3.585,9.938 2.815,18.758c-0.722,8.279 1.736,17.277 2.437,18.769l-72.356,-0.105c3.096,-8.892 11.157,-21.899 18.053,-29.485c7.32,-8.052 15.135,-19.894 18.421,-26.828c2.142,-4.519 6.86,-27.212 6.235,-51.866c-0.453,-17.838 -4.319,-34.631 -8.459,-45.925c-3.112,-8.49 -7.027,-20.565 -6.615,-35.914c0.147,-5.461 1.621,-21.332 8.555,-29.875c3.094,-3.812 3.202,-6.015 2.076,-6.719c-0.965,-0.604 -12.833,7.218 -24.356,7.478c-5.486,0.124 -13.065,0.033 -19.717,-2.967c-5.645,-2.546 -8.73,-5.318 -11.374,-9.087c-3.128,-4.458 -5.4,-8.967 -4.327,-16.813c-5.224,3.317 -17.346,7.772 -21.573,8.159c-7.428,0.68 -20.606,1.835 -29.795,-1.509c-6.219,-2.263 -14.565,-5.439 -21.82,-10.977c-7.219,-5.511 -12.092,-11.392 -15.022,-15.702c-2.407,-3.541 -9.227,-14.55 -11.126,-19.532c-3.019,-7.919 -6.015,-11.075 -3.647,-24.788c1.539,-8.919 11.052,-11.33 13.845,-11.558c9.314,-0.761 13.457,6.108 17.493,9.518c4.586,3.873 9.594,6.732 21.389,8.407c8.732,1.24 19.445,2.77 26.147,6.367c7.372,3.956 12.343,10.346 14.774,15.205c2.858,5.713 7.051,16.627 8.407,23.612c3.54,-5.298 -6.485,-15.592 -3.152,-20.396c1.145,-1.651 3.352,-1.506 12.918,-0.928c6.393,0.386 13.957,3.256 19.349,6.799c6.347,4.17 12.647,9.283 15.637,12.486c6.289,6.736 6.397,7.701 11.806,12.918c-1.658,-6.501 -6.067,-9.727 -10.198,-14.526c-6.315,-7.337 -9.373,-8.126 -14.03,-11.558c-3.175,-2.341 0.614,-8.144 13.598,-11.806c8.234,-2.323 18.792,-3.233 27.14,-1.36c10.264,2.303 13.933,4.059 19.036,7.047c5.544,3.245 5.986,7.097 6.367,8.158c0.508,1.413 1.665,3.164 5.44,5.688c3.742,2.501 7.086,3.716 12.054,6.366c5.08,2.711 7.363,4.833 10.198,8.407c1.78,2.244 5.947,7.234 7.295,13.598c-0.142,-14.688 -14.806,-22.321 -16.318,-24.191c-3.341,-4.134 2.581,-2.627 7.098,-3.875c5.188,-1.432 8.436,-3.363 9.036,-3.671c2.979,5.653 1.993,5.774 2.291,7.56c0.014,0.083 0.028,0.164 0.04,0.243c-0.017,0.308 0.027,0.417 0.083,0.522c0.27,1.708 0.457,2.664 2.15,4.293c0.425,0.41 0.865,0.729 1.334,0.981c0.137,0.085 0.287,0.158 0.451,0.218c0.302,0.13 0.617,0.237 0.947,0.326c0.208,0.157 0.298,0.327 1.144,0.354c1.138,0.036 2.177,0.401 2.846,0.471c0.366,0.039 0.543,0.049 0.645,0.053c1.079,0.386 2.228,0.9 3.458,1.176c3.559,0.798 6.457,-0.854 8.471,-0.183c3.183,1.061 13.69,-1.097 18.237,0.645c1.609,0.617 4.348,1.655 7.355,1.994c5.409,0.609 12.362,0.472 14.465,2.334c4.068,3.6 6.94,6.097 8.159,12.485c0.444,2.331 2.14,7.48 5.935,8.839c0.611,-3.095 -3.482,-3.133 -2.72,-9.334c0.132,-1.071 13.057,2.863 22.253,8.406c4.895,2.951 12.624,9.279 17.061,16.566c3.295,5.412 5.452,11.984 7.726,22.252c2.078,9.382 1.32,20.379 -1.359,27.387c-3.908,10.221 -8.94,6.829 -10.631,16.72c2.421,-3.018 3.686,-7.089 8.839,-6.953c4.216,0.111 7.355,6.315 9.086,10.198c1.99,4.463 4.378,8.852 5.44,13.776c0.447,2.075 1.935,8.867 0.927,12.372c-1.239,4.311 -0.412,5.336 -10.942,18.421c2.53,-0.372 6.902,-3.418 9.847,-7.942c3.601,-5.532 2.904,-11.924 5.976,-13.81c1.817,-1.115 7.954,2.19 11.441,4.314c4.471,2.724 10.305,10.031 14.812,14.801c8.938,9.46 13.611,10.35 16.258,12.451c30.687,24.361 -9.675,22.977 -20.167,22.587Zm-117.295,-37.294c-0.214,0.337 -0.777,0.856 -1.085,1.588c-0.243,0.576 -0.372,1.442 0.108,2.48c0.481,1.038 1.786,1.443 3.069,1.689c1.41,0.272 3.161,0.179 3.944,0.155c0.783,-0.023 2.642,0.365 2.642,0.365c0,-0 -0.612,-0.504 -1.518,-0.892c-0.907,-0.387 -3.487,-0.124 -5.022,-0.612c-1.534,-0.488 -2.084,-1.464 -2.503,-2.216c-0.418,-0.752 0.365,-2.557 0.365,-2.557Zm-28.02,61.528c-0.43,0.197 -1.157,0.659 -1.574,1.925c-0.388,1.179 -0.291,2.276 0.036,2.991c0.327,0.714 1.392,1.436 2.567,1.453c1.026,0.014 6.64,-0.792 9.65,-0.666c-0.64,-0.495 -3.455,-0.539 -4.916,-0.339c-1.427,0.194 -4.296,0.161 -5.448,-0.557c-2.02,-1.259 -0.961,-3.38 -0.315,-4.807Zm34.433,-108.058c-0.782,3.061 2.711,6.679 3.87,7.588c4.319,3.386 11.846,6.089 18.907,7.882c7.06,1.794 10.987,1.771 14.574,1.385c3.587,-0.386 8.264,-3.519 9.581,-5.13c1.316,-1.612 2.812,-2.163 4.631,-10.693c1.759,-8.251 6.12,-12.609 7.378,-13.19c-3.286,0.111 -7.295,5.36 -10.057,12.963c-3.328,9.159 -5.176,9.489 -9.376,11.714c-4.2,2.225 -12.827,1.169 -16.073,0.625c-3.246,-0.545 -10.057,-2.411 -17.571,-6.743c-4.296,-2.476 -5.864,-6.401 -5.864,-6.401Zm-87.014,-48.953c5.442,7.185 8.787,15.762 9.719,20.936c0.289,1.6 1.463,11.46 7.88,18.408c6.417,6.948 11.874,10.744 29.915,12.238c18.042,1.494 22.437,-4.759 22.437,-4.759c-4.126,1.981 -10.232,3.388 -27.196,1.36c-17.228,-2.061 -23.423,-12.383 -29.915,-29.236c-6.49,-16.847 -11.485,-18.595 -12.84,-18.947Zm58.124,124.097c-0,-0 -1.792,2.736 -3.076,4.008c-1.283,1.271 -2.833,1.755 -5.315,2.288c-1.355,0.291 -3.257,-0.024 -4.589,-0.121c-0.586,-0.021 -2.129,0.494 -3.293,0.375c0.485,0.448 2.988,0.667 4.25,0.666c0.506,-0 2.611,0.499 3.985,0.139c1.093,-0.287 3.316,-0.381 4.539,-1.568c1.222,-1.186 3.499,-5.787 3.499,-5.787Zm-32.641,40.35c1.336,1.685 5.036,3.471 6.708,3.862c1.047,0.246 3.21,0.25 5.4,-1.017c2.316,-1.339 2.868,-4.505 3.838,-6.053c-1.301,0.368 -2.616,2.902 -4.31,4.419c-4.087,3.659 -9.829,-0.401 -11.636,-1.211Zm32.14,25.186c-1.235,0.169 -3.469,0.987 -5.057,2.198c-2.207,1.684 -2.318,3.374 -6.664,8.04l2.451,0.048c2.111,-3.375 4.806,-6.782 9.27,-10.286Zm9.479,-65.65c-0.854,1.19 -0.189,2.754 1.178,3.534c1.767,1.007 4.613,1.669 7.144,2.076c1.825,0.294 7.254,0.157 9.485,-1.193c-1.421,0.048 -5.38,0.323 -7.625,0.202c-2.771,-0.151 -4.68,-0.501 -7.222,-1.302c-2.119,-0.669 -2.937,-2.523 -2.96,-3.317Zm-1.04,-24.909c0,-0 -1.356,1.586 -3.462,2.579c-2.107,0.992 -6.999,1.089 -9.13,0.351c-2.131,-0.739 -5.896,-2.083 -8.814,-2.749c-2.918,-0.666 -7.798,-1.816 -7.798,-1.816c0,0 5.304,1.84 6.672,2.724c1.368,0.884 6.422,2.885 8.342,3.439c1.853,0.534 5.071,0.5 8.064,0.06c2.484,-0.365 5.278,-2.862 6.126,-4.588Zm215.864,20.749c1.224,3.243 1.921,5.848 -0.458,9.766c-1.036,1.708 -1.129,1.56 -1.988,2.902c0.209,0.376 2.341,2.792 -0.006,6.422c-2.431,3.759 -5.258,3.227 -5.706,3.513c0.161,0.591 0.639,2.558 -1.938,5.479c-2.823,3.199 -4.449,2.647 -5.927,2.84c0.608,1.932 -3.656,4.621 -6.814,4.743c-1.482,0.057 -3.333,-0.577 -4.766,-1.89c-1.319,-1.208 -3.21,-2.721 -3.786,-3.864c-1.289,-2.556 -4.584,-4.396 -3.751,-7.166c0.629,-2.092 5.23,-0.245 7.5,1.198c1.383,0.879 2.318,1.268 3.755,1.818c0.867,0.331 3.369,0.846 3.294,0.321c-0.107,-0.74 -2.466,-1.101 -4.304,-1.919c-1.27,-0.565 -3.399,-1.357 -4.151,-2.253c-1.309,-1.559 -5.832,-5.013 -4.201,-8.14c0.669,-1.282 1.537,-2.986 3.009,-3.029c0.973,-0.028 5.162,2.319 7.229,3.894c1.916,1.46 3.014,1.801 4.147,2.207c1.137,0.408 2.673,0.673 2.599,-0.264c-0.05,-0.641 -3.57,-1.587 -5.21,-2.145c-1.863,-0.635 -5.212,-3.79 -5.813,-5.003c-0.858,-1.735 -0.37,-3.981 1.548,-6.343c1.2,-1.477 4.668,-0.462 6.327,0.985c1.831,1.597 5.55,2.182 7.616,2.535c2.614,0.448 3.994,-0.146 3.828,-0.933c-0.166,-0.783 -1.311,-0.703 -3.148,-0.678c-5.014,0.068 -6.664,-1.344 -7.681,-1.895c-1.382,-0.749 -4.405,-1.664 -3.689,-4.478c0.566,-2.223 4.06,-5.422 5.531,-5.814c1.431,-0.381 3.215,-2.35 6.287,-1.634c1.955,0.455 5.86,-0.352 7.257,1.485c1.396,1.838 1.937,3.437 3.41,7.34Zm-23.114,-15.795c7.604,0.306 11.954,1.945 8.707,6.138c-0.875,1.13 -6.298,2.964 -9.557,6.968c-3.104,3.814 -3.172,8.328 -9.263,8.202c-5.555,-0.115 -10.279,-9.792 -5.386,-13.917c2.838,-2.393 11.521,-7.55 15.499,-7.391Z" style="fill:#737373;"/><path id="light-grey" d="M387.03,106.74c-3.149,2.027 -4.498,4.41 -5.714,6.794c-1.201,2.356 -4.53,4.307 -6.366,4.079c-2.997,-0.372 -2.339,2.679 -1.36,3.895c0.736,0.915 0.057,2.76 -0.928,3.4c-1.175,0.762 -1.828,3.388 -2.04,5.255c-0.381,3.369 -2.786,4.598 -4.327,6.799c-1.854,2.647 -3.615,7.077 -6.799,9.086c-3.183,2.009 -8.123,2.396 -12.302,2.968c-4.44,0.608 -8.778,0.834 -12.302,0.68c-2.326,-0.103 -5.638,-1.863 -7.479,-1.608c-2.019,0.279 -3.905,-1.299 -5.243,-1.588c-1.338,-0.288 -2.865,0.377 -4.147,-0.142c-1.283,-0.521 -2.55,-2.414 -3.552,-2.979c-0.724,-0.408 -1.734,-0.003 -2.459,-0.409c-0.531,-0.297 -0.454,-1.566 -1.103,-2.175c-0.605,-0.57 -1.931,-0.478 -2.596,-0.866c-1.523,-0.888 -3.884,-2.02 -5.44,-2.287c-0.53,-0.092 -1.161,0.871 -1.769,1.162c-0.88,0.421 -1.712,0.178 -2.126,-0.483c-1.257,-2.009 -3.049,-8.359 -3.647,-12.733c-0.722,-5.276 -0.948,-13.951 -0.68,-18.917c0.199,-3.7 0.502,-6.662 1.608,-10.199c2.009,-6.428 6.022,-8.241 6.366,-12.054c0.311,-3.432 -0.637,-8.809 0.68,-10.694c0.612,-0.875 2.185,-0.387 3.165,-0.658c0.939,-0.259 1.492,-0.827 2.442,-0.615c1.268,0.283 3.586,2.643 4.913,2.687c1.314,0.044 3.908,0.122 3.803,-2.546c-0.081,-2.042 -1.74,-4.588 -3.255,-5.649c-1.379,-0.967 -5.503,-0.309 -5.956,-1.256c-0.453,-0.948 0.829,-1.78 1.935,-4.697c0.558,-1.47 1.999,-4.626 3.4,-6.367c1.264,-1.571 3.25,-3.088 5.007,-4.079c2.081,-1.175 4.954,-3.311 7.479,-3.647c2.524,-0.336 5.065,1.388 7.667,1.631c3.11,0.29 7.639,-0.149 10.996,0.108c3.076,0.235 6.771,1.079 9.145,1.43c3.062,0.452 3.124,1.644 4.77,2.27c1.702,0.646 6.492,1.921 7.727,4.327c0.724,1.41 1.471,3.777 2.168,5.679c0.793,2.164 1.107,4.885 2.591,7.303c1.315,2.143 2.649,4.618 2.234,7.205c-0.226,1.411 -0.599,2.809 -0.645,4.238c-0.069,2.151 0.453,5.81 0.229,8.673c-0.132,1.69 -0.371,3.913 2.509,4.424c0.434,0.077 0.959,0.019 1.539,-0.109c-0.002,0.004 -0.004,0.008 -0.005,0.012c-0,-0 0.019,-0.008 0.055,-0.023c1.233,-0.278 2.706,-0.857 4.078,-1.117c0.318,-0.032 0.621,-0.04 0.896,-0.016c1.86,0.161 4.225,0.806 5.125,1.786c0.9,0.979 2.748,2.764 2.81,4.586c0.083,2.447 -0.806,3.769 -1.389,4.96c-0.436,0.891 -1.074,1.775 -1.708,2.476Zm-75.987,-26.74c-0.867,-0.272 -2.459,-0.103 -3.279,0.187c-2.076,0.737 -3.514,2.075 -4.318,2.589c-0,0.99 1.541,4.983 5.83,5.088c2.58,0.064 6.446,-1.984 6.446,-2.974c0,-0.259 0.502,-3.266 -4.679,-4.89Zm-2.572,19.278c-1.076,0.298 -0.967,2.009 -0.852,2.665c0.115,0.656 1.673,1.99 2.75,1.846c1.079,-0.144 0.941,-2.271 0.807,-3.037c-0.134,-0.765 -1.624,-1.774 -2.705,-1.474Zm2.074,28.388c-0.156,-0.208 -0.258,-0.036 -0.557,0c-0.3,0.037 0.293,-0.095 -0.362,-0.158c-0.525,-0.05 -0.101,0.216 -0.507,-0.041c-0.406,-0.257 -0.162,-0.25 -0.792,-0.246c-0.63,0.003 -0.434,-0.091 -0.681,-0.153c-0.248,-0.062 -0.971,0.415 -1.004,0.598c-0.032,0.183 0.174,0.065 -0.168,0.342c-0.342,0.277 -0.046,0.053 -0.433,0.212c-0.387,0.159 -0.168,-0.236 -0.509,0.183c-0.304,0.373 0.016,0.356 -0.399,0.376c-0.415,0.021 -0.117,0.312 -0.447,0.61c-0.33,0.299 -0.42,0.888 -0.274,1.068c0.146,0.18 0.489,0.366 0.545,0.649c0.035,0.172 0.225,0.035 0.522,0.423c0.297,0.388 0.694,0.308 1.082,0.203c0.387,-0.105 0.397,-0.158 0.927,0.096c0.531,0.254 -0.291,-0.054 1.202,0.361c0.857,0.238 0.773,-0.033 1.072,0.25c0.3,0.282 0.769,0.167 1.341,0.25c0.572,0.084 0.697,-0.213 1.115,0c0.418,0.214 0.884,-0.213 1.115,0c0.232,0.214 0.38,-0.148 0.558,0c0.178,0.149 0.293,0.07 0.37,-0.336c0.077,-0.406 0.286,-0.102 0.428,-0.419c0.142,-0.318 0.554,-0.573 0.317,-0.919c-0.236,-0.345 -0.186,-0.054 -0.207,-0.673c-0.02,-0.619 -0.244,-0.754 -0.375,-0.958c-0.131,-0.204 -0.178,-0.093 -0.533,-0.717c-0.355,-0.623 0.028,0.004 -0.649,-0.486c-0.677,-0.489 -1.335,-0.502 -1.581,-0.515c-0.246,-0.013 -0.251,0.013 -0.558,0c-0.307,-0.013 -0.401,0.208 -0.558,0Zm15.114,-29.533c1.118,1.839 1.8,3.226 1.725,5.048c-0.059,1.446 -0.074,2.188 -2.424,3.979c-0,-0 2.974,-0.007 4.53,-1.284c1.468,-1.205 0.958,-4.111 0.683,-4.787c-0.709,-1.736 -2.646,-3.404 -4.514,-2.956Zm35.226,-15.091c-0.071,-0.39 -2.732,-4.509 -6.336,-7.223c-3.392,-2.554 -0.985,-2.677 -9.358,-3.166c-3.402,-0.199 -8.766,-0.131 -10.29,1.112c-0,0 -4.205,3.236 5.472,4.052c9.677,0.816 8.889,0.438 10.637,1.609c1.693,1.133 8.665,3.592 9.875,3.616Zm-41.291,18.436c-0.886,-0.638 -5.295,-2.289 -5.934,-1.124c-0.68,1.238 2.15,2.964 4.595,4.068c2.444,1.104 3.281,0.552 3.631,-0.282c0.336,-0.799 -1.406,-2.024 -2.292,-2.662Zm-13.082,-3.307c-0.533,-3.595 1.957,-5.764 6.872,-8.448c3.282,-1.792 7.86,-7.466 7.555,-10.833c-0.244,0.568 -2.338,3.676 -4.341,5.761c-3.96,4.119 -7.836,5.332 -9.676,7.501c-2.443,2.881 -1.522,7.629 -0.41,6.019Zm20.647,27.431c-3.229,-1.204 -8.728,-5.648 -12.14,-6.27c-1.086,-0.197 -2.021,0.056 -3.524,-0.177c-0.989,-0.153 -1.361,-0.81 -3.053,-0.795c-1.499,0.014 -6.043,1.364 -6.335,2.42c0.17,0.826 2.685,1.136 3.47,1.511c0.951,0.453 5.084,1.564 5.636,1.665c0.553,0.1 3.061,0.623 4.255,0.666c1.594,0.058 9.562,0.956 11.691,0.98Zm48.567,-20.655c0.217,0.585 0.239,0.831 0.328,1.286c0.054,0.272 0.118,0.99 -0.205,1.552c-0.364,0.633 -0.583,0.464 -0.834,2.043c-0,-0 1.721,-0.177 2.205,-0.958c0.555,-0.898 1.048,-2.185 0.591,-2.959c-0.456,-0.774 -2.085,-0.964 -2.085,-0.964Zm-34.783,-22.445c-0.884,0.364 -4.976,2.64 -5.684,3.206c0.713,1.201 1.934,4.737 4.561,5.321c2.612,0.581 3.83,1.354 6.92,0.461c1.229,-0.355 3.584,-1.979 6.352,-3.021c-2.04,-2.233 -4.939,-4.58 -6.964,-5.574c-0.958,-0.471 -3.657,-1.021 -5.185,-0.393Zm-29.265,31.718c0.003,0.059 0.144,0.242 1.547,0.193c0.394,0.214 3.229,0.679 3.204,1.235c0,-0 2.272,1.462 2.704,1.972c0.431,0.51 0.18,0.18 1.772,1.116c1.592,0.936 2.983,1.269 3.804,1.675c0.82,0.405 0.565,0.632 1.115,1.116c0.55,0.484 0.807,0.455 1.673,1.116c0.865,0.661 2.523,0.676 2.788,1.116c0.265,0.441 -0.442,0.499 0.557,1.117c0.999,0.617 1.175,1.366 2.231,1.116c1.055,-0.25 1.544,-0.369 1.672,-0.558c0.129,-0.189 0.274,-0.36 0,-1.675c-0.28,-1.345 -0.577,-0.993 -0.557,-1.674c0.023,-0.796 -0.409,-0.168 -0.558,-1.116c-0.148,-0.949 -0.889,-0.638 -1.115,-1.117c-0.226,-0.478 -0.634,-1.078 -1.673,-1.674c-1.039,-0.595 -1.185,-0.194 -2.23,-1.116c-1.045,-0.922 -0.164,-0.515 -1.673,-1.116c-1.509,-0.602 -1.918,-1.026 -2.788,-1.675c-1.541,-1.149 -1.376,-2.005 -2.788,-2.232c-1.412,-0.228 -1.568,-0.243 -2.23,-0.559c-0.662,-0.315 -0.746,0.046 -1.673,-0.558c-0.927,-0.603 -2.656,-1.388 -2.934,-1.295c-0.279,0.093 -0.782,-0.532 -1.448,-0.1c-0,-0 0.127,0.268 -0.883,-0.204c-0.492,-0.23 -0.147,-0.693 -0.856,-0.468c-0,0 -0.774,-0.783 -1.39,-0.557c-0.617,0.225 -2.097,1.31 -2.568,1.232c-0.471,-0.078 -0.806,0.283 -0.806,0.283c-0,-0 -0.164,0.43 -0.267,0.514c-0.103,0.085 -0.217,-0.18 -0.558,0c-0.34,0.181 -0.903,0.214 -1.115,0.595c-0.211,0.382 -1.097,0.162 -1.115,0.558c-0.018,0.397 -0.558,0.559 -0.558,0.559l-1.115,1.116l-0.557,-0l-0.558,0.558l-0.557,-0l-0.558,0.558l-0,0.558c-0,0 -0.292,0.887 -0.558,1.116c-0.266,0.23 0.075,0.219 0,0.559c-0.074,0.34 0.363,0.203 0.558,0.558c0.195,0.355 -0.098,0.538 0.558,0.558c0.655,0.02 0.621,0.171 1.115,-0c0.494,-0.171 0.718,-0.531 1.115,-0.558c0.397,-0.027 1.032,-0.205 1.363,-0.311c0.331,-0.105 0.189,-0.687 0.653,-0.547c0.267,0.081 0.894,-0.137 0.894,-0.137c0,0 0.978,-0.471 1.115,-0.558c0.138,-0.087 0.424,-0.653 0.907,-0.49c0.534,0.179 0.206,0.13 1.16,-0.091c0.358,-0.082 0.612,-0.187 1.014,-0.209c0.403,-0.021 1.093,-0.255 1.239,-0.355c0.147,-0.1 0.552,0.244 0.873,-0.079c0.031,-0.031 0.047,-0.052 0.055,-0.065c-0,-0.021 0.016,-0.027 0,-0Zm-253.532,-89.392c5.718,-0.196 8.49,1.092 11.19,3.4c2.7,2.307 4.286,6.768 5.007,10.446c0.721,3.678 0.031,8.892 -0.68,11.622c-0.5,1.922 -1.869,3.757 -3.583,4.759c-1.957,1.144 -4.945,1.3 -6.799,-0.616c-1.854,-1.915 -4.406,-8.105 -4.327,-10.878c0.1,-3.513 -0.306,-6.113 -1.36,-6.551c-2.192,1.036 -3.756,3.261 -2.784,8.159c0.768,3.869 3.76,11.65 5.192,15.389c0.843,2.204 0.381,5.759 -0.68,7.047c-1.061,1.288 -4.562,1.302 -6.367,0.68c-1.855,-0.639 -3.636,-2.441 -4.759,-4.511c-1.515,-2.792 -2.86,-9.034 -2.968,-12.238c-2.534,-1.092 -4.526,2.844 -4.079,5.007c0.71,3.441 1.853,7.891 3.583,11.558c1.074,2.277 2.534,5.192 2.72,7.047c0.145,1.454 -0.204,2.813 -0.928,4.079c-0.495,0.865 -3.812,2.626 -6.119,1.112c-1.529,-1.004 -3.186,-3.897 -4.327,-6.119c-1.37,-2.665 -3.619,-8.924 -4.572,-9.873c-0.953,0.326 -1.204,2.659 -1.147,4.178c0.082,2.17 1.818,6.273 2.999,8.846c0.922,2.01 0.714,5.212 0.011,6.596c-0.704,1.384 -2.607,2.99 -4.913,1.708c-1.624,-0.904 -4.437,-3.206 -5.544,-5.584c-1.264,-2.713 -2.34,-6.522 -2.04,-9.334c0.337,-3.156 2.712,-5.574 4.327,-7.479c2.761,-3.256 2.112,-7.058 4.08,-9.335c1.93,-2.233 5.785,-2.783 7.726,-5.007c2.051,-2.349 2.145,-6.817 4.576,-9.086c2.437,-2.276 3.817,-1.913 6.119,-3.648c1.903,-1.434 2.207,-4.668 3.647,-6.799c1.741,-2.575 4.069,-4.481 6.799,-4.575Zm378.987,264.082c10.929,-0.42 17.745,11.522 19.462,14.32c5.048,8.224 20.257,15.589 24.166,20.472c7.219,9.015 4.754,13.479 -26.197,12.032c-4.224,-0.198 -19.548,-3.997 -22.566,-5.12c-5.285,-1.968 -8.817,-5.258 -10.788,-10.87c-1.162,-3.31 -1.147,-9.251 -0.499,-11.338c1.169,-3.771 7.531,-4.543 10.446,-9.087c2.241,-3.491 2.374,-10.271 5.976,-10.409Zm-352.572,-240.71c5.501,4.696 3.62,9.886 0.248,14.406c-1.661,2.225 -11.765,8.806 -13.846,3.583c-1.923,-4.826 4.297,-5.092 8.591,-9.83c2.714,-2.994 3.565,-7.479 5.007,-8.159Zm224.492,358.994c1.259,-4.035 4.857,-8.236 9.32,-11.74c-1.949,-0.023 -4.788,0.658 -6.376,1.869c-2.207,1.683 -4.154,3.486 -5.464,9.864l-42.879,-0.11c0.471,-4.65 -5.358,-11.907 -5.388,-20.754c-0.021,-6.468 -1.503,-14.027 -2.408,-16.483c-0.803,-2.177 -5.314,-9.276 -6.173,-9.634c0.339,0.547 0.959,6.053 1.06,7.843c0.161,2.842 3.943,5.758 3.475,18.565c-0.303,8.305 -0.199,17.745 2.125,20.447l-69.625,-0.077c3.095,-8.893 9.858,-21.42 16.754,-29.006c7.319,-8.052 15.135,-18.534 18.421,-25.468c3.691,-7.789 21.236,-77.006 11.374,-103.911c-3.112,-8.489 -15.186,-24.644 -15.454,-38.633c-0.104,-5.462 -0.419,-16.573 3.116,-23.756c2.168,-4.405 4.141,-6.06 4.795,-10.119c-13.846,8.972 -22.351,7.899 -27.755,8.159c-5.481,0.264 -11.026,-0.647 -17.677,-3.648c-5.645,-2.545 -8.191,-4.543 -10.695,-8.406c-2.448,-3.778 -5.399,-8.968 -5.007,-16.134c-5.223,3.317 -18.025,5.733 -22.252,6.119c-7.428,0.68 -20.626,1.36 -29.795,-2.039c-5.97,-2.213 -16.661,-7.22 -20.461,-10.446c-6.601,-5.606 -11.158,-11.457 -14.341,-15.702c-2.848,-3.796 -4.867,-9.591 -6.367,-14.094c-2.123,-6.366 -0.928,-12.384 -0.248,-17.989c0.255,-2.106 1.548,-4.445 3.647,-4.759c4.543,-0.68 9.045,0.483 14.094,2.04c5.945,1.834 19.018,5.604 26.147,6.367c8.701,0.93 17.754,2.185 24.108,6.367c6.012,3.956 12.326,12.107 14.774,15.885c2.504,3.864 9.091,15.267 7.047,21.573c6.94,-8.018 -2.405,-15.593 0.928,-20.397c1.145,-1.65 4.032,-2.865 10.878,-2.288c6.382,0.539 13.957,3.257 19.349,6.119c6.707,3.562 12.481,9.447 15.637,12.486c6.289,6.057 9.116,11.101 13.166,17.677c-1.658,-10.579 -5.509,-14.578 -8.839,-19.964c-4.955,-8.017 -13.051,-10.497 -12.669,-14.958c0.127,-1.495 -0.067,-4.744 11.558,-7.727c8.287,-2.126 17.432,-2.552 25.779,-0.679c10.265,2.302 12.758,4.444 18.357,9.766c4.239,4.028 3.946,7.097 5.008,8.159c1.061,1.061 3.396,1.659 7.478,3.647c3.743,1.822 9.126,3.717 14.774,8.407c4.429,3.678 7.247,8.529 9.518,12.486c2.46,4.283 3.228,8.593 3.216,12.238c1.898,-4.49 0.298,-12.334 2.039,-13.993c1.087,-1.035 3.328,-2.008 9.087,-0.717c3.559,0.798 15.976,4.435 17.989,5.106c3.183,1.061 16.41,6.381 22.316,10.163c4.062,2.601 11.07,6.871 14.342,9.767c4.068,3.601 8.3,8.137 12.238,7.727c2.36,-0.247 3.813,-0.598 6.615,-4.76c1.676,-2.489 0.597,-6.532 1.36,-7.294c0.762,-0.763 8.697,0.889 10.694,1.607c4.842,1.741 11.944,7.239 15.021,12.486c3.206,5.466 6.813,11.305 9.087,20.893c2.217,9.35 0.64,21.739 -1.36,26.027c-4.624,9.918 -10.3,10.229 -9.95,20.119c2.421,-3.018 4.364,-4.336 9.518,-4.233c5.576,0.111 8.035,6.315 9.087,8.158c2.42,4.245 4.378,10.892 5.439,15.816c0.447,2.075 0.575,8.188 0.248,9.652c-0.979,4.378 -4.492,12.135 -10.943,15.022c-8.07,3.611 -12.555,1.119 -16.381,-1.36c-3.838,-2.487 -6.495,-9.656 -6.799,-11.126c-1.061,-5.141 -2.209,-11.035 -6.367,-13.598c-1.061,7.18 -1.236,16.534 -2.967,23.364c-3.497,13.8 -9.515,21.425 -17.061,31.835c-3.301,4.552 -11.216,19.163 -14.774,26.827c-1.91,4.116 -9.137,13.094 -13.414,20.461c-6.94,11.956 -2.719,24.962 -2.719,24.962l-28.375,-0.073Zm17.004,-103.447c0,0 -3.825,2.381 -5.931,3.374c-2.107,0.993 -7.793,0.295 -9.924,-0.444c-1.238,-0.429 -5.04,-1.86 -10.668,-2.198c-4.022,-0.242 -9.949,-1.889 -11.172,-2.168c-2.918,-0.666 -6.605,-5.079 -6.605,-5.079c-0,-0 0.852,3.431 1.96,4.625c4.008,4.318 15.844,3.509 20.46,6.333c1.645,1.007 8.504,2.961 11.526,2.814c2.825,-0.138 8.967,-0.309 10.354,-7.257Zm0.586,25.665c-1.918,2.727 0.706,6.217 2.073,6.996c1.767,1.008 4.731,0.487 7.263,0.624c1.845,0.1 9.179,-0.536 11.63,-2.24c-3.33,0.487 -7.492,0.34 -9.737,0.218c-2.771,-0.15 -5.541,-1.277 -8.083,-2.079c-2.119,-0.668 -3.123,-2.725 -3.146,-3.519Zm-60.262,17.658c7.521,7.183 13.455,15.928 15.041,18.682c0.537,0.932 7.565,10.967 14.421,10.496c3.807,-0.262 4.515,-5.878 5.395,-7.379c0.686,-1.168 1.281,-2.154 1.365,-3.701c-1.302,0.368 -8.07,6.992 -12.318,6.576c-8.215,-0.803 -10.585,-18.752 -23.904,-24.674Zm75.471,-47.39c-1.919,0.502 -3.186,2.348 -3.53,2.974c-0.684,1.246 -0.697,2.437 -0.217,3.475c0.481,1.038 3.618,1.88 4.901,2.126c1.41,0.272 9.811,-0.4 10.555,-0.644c0.749,-0.246 7.148,-0.427 7.943,-0.771c-0.483,-0.135 -7.033,-0.312 -7.814,-0.007c-1.378,0.536 -8.862,0.396 -10.787,-0.789c-1.371,-0.845 -1.978,-1.727 -2.224,-2.551c-0.548,-1.84 1.173,-3.813 1.173,-3.813Zm4.969,-46.223c-2.416,3.559 0.629,8.449 1.788,9.358c4.319,3.386 13.435,7.202 20.496,8.995c7.06,1.793 10.874,1.271 14.438,1.385c3.606,0.115 8.286,-2.838 9.603,-4.45c1.317,-1.612 4.606,-5.363 6.425,-13.893c1.759,-8.252 4.985,-10.453 6.197,-12.464c-3.285,0.111 -7.952,4.225 -10.533,10.693c-3.612,9.05 -5.767,10.193 -9.966,12.418c-4.2,2.225 -12.169,2.395 -15.415,1.85c-3.247,-0.545 -9.336,-2.415 -16.85,-6.747c-4.296,-2.476 -6.183,-7.145 -6.183,-7.145Zm-29.429,79.298c0,-0 -1.519,0.284 -2.803,1.556c-1.283,1.271 -5.304,1.98 -7.828,2.247c-4.767,0.505 -13.02,-1.845 -16.107,-3.013c-8.281,-3.133 -9.77,-8.198 -10.799,-10.587c-0.232,-0.539 -4.122,-7.543 -5.286,-7.661c-0.063,1.3 1.642,2.883 3.913,9.937c2.502,7.774 8.855,8.322 11.208,8.799c2.15,0.435 9.165,2.54 12.944,5.226c1.557,1.107 7.811,0.819 10.903,-1.304c1.632,-1.12 2.735,-4.068 3.855,-5.2Zm-64.289,-131.444c5.442,7.185 12.458,14.857 13.391,20.031c0.288,1.601 4.737,20.355 11.154,27.302c6.417,6.948 13.228,10.523 31.27,12.017c18.041,1.494 23.287,-10.186 23.287,-10.186c-4.126,1.981 -15.819,5.57 -31.931,1.519c-16.827,-4.23 -21.88,-14.351 -28.372,-31.204c-6.49,-16.847 -17.444,-19.127 -18.799,-19.479Zm61.243,158.514c-1.035,0.844 -3.297,3.207 -3.925,4.993c-0.411,1.171 -1.181,3.503 0.008,5.004c1.073,1.354 3.954,1.643 5.129,1.65c2.504,0.014 8.259,-2.551 12.747,-2.355c-0.64,-0.495 -7.185,-1.608 -8.646,-1.409c-1.427,0.194 -5.056,1.443 -6.885,0.119c-1.927,-1.396 0.926,-6.576 1.572,-8.002Zm225.312,-35.355c3.84,7.898 -1.804,12.009 -2.171,12.344c-1.476,1.347 1.959,3.693 -0.388,7.323c-2.431,3.759 -5.392,2.1 -5.839,2.386c0.16,0.59 1.543,2.539 -1.035,5.461c-2.822,3.199 -4.406,3.981 -5.884,4.174c0.608,1.932 -1.495,3.15 -4.015,4.323c-1.345,0.626 -3.918,0.582 -5.351,-0.731c-1.319,-1.208 -2.968,-2.245 -3.78,-3.234c-2.133,-2.598 -1.715,-4.826 -1.226,-5.681c0.314,-0.547 1.532,-1.38 3.802,0.063c1.383,0.879 3.1,1.103 4.537,1.653c0.867,0.331 3.575,0.454 3.5,-0.071c-0.107,-0.739 -2.136,-2.089 -3.974,-2.907c-1.27,-0.565 -3.863,-1.013 -4.645,-1.882c-1.515,-1.683 -2.738,-4.128 -2.063,-5.897c0.516,-1.351 1.343,-2.248 2.814,-2.291c0.974,-0.028 2.93,1.069 4.998,2.644c1.915,1.459 3.652,0.894 4.784,1.3c1.138,0.408 2.673,0.673 2.6,-0.264c-0.05,-0.641 -3.385,-2.617 -5.025,-3.175c-1.863,-0.635 -3.386,-1.36 -3.986,-2.573c-0.859,-1.735 -2.041,-4.128 -0.123,-6.49c1.2,-1.478 3.194,-1.159 4.853,0.288c1.831,1.597 6.683,1.625 8.748,1.979c2.615,0.447 3.995,-0.146 3.828,-0.934c-0.165,-0.782 -1.393,-2.474 -3.23,-2.449c-5.013,0.068 -6.458,-0.458 -7.475,-1.009c-1.382,-0.749 -2.366,-1.13 -1.65,-3.944c0.566,-2.224 1.898,-5.07 3.369,-5.462c1.431,-0.381 3.215,-2.35 6.286,-1.635c1.956,0.456 3.975,-0.288 5.371,1.549c1.397,1.838 0.546,1.39 2.37,5.142Zm-22.042,-13.045c1.976,-0.31 11.71,-0.272 9.525,3.606c-0.958,1.701 -2.643,2.546 -7.701,3.572c-7.961,1.616 -8.094,12.219 -13.277,10.198c-5.771,-2.249 -6.02,-9.281 0.287,-12.855c3.23,-1.831 5.896,-3.693 11.166,-4.521Z" style="fill:#ccc;"/><path id="white" d="M336.67,85.445c0.3,-0.556 0.701,-0.966 1.175,-1.268c0,0 -0.348,1.133 0.597,2.624c0.945,1.492 3.825,2.351 5.85,0.216c1.525,-1.608 1.143,-3.232 1.206,-4.276c1.426,0.51 7.058,5.701 7.058,5.701c-0,-0 -3.541,1.292 -7.203,1.425c-3.663,0.133 -5.966,-0.597 -7.06,-1.342c-1.094,-0.746 -1.623,-3.08 -1.623,-3.08Zm40.468,9.179c0.223,-0.347 2.342,-2.11 6.895,-1.91c5.174,0.228 5.973,4.263 6.393,5.276c0.419,1.012 -0.97,6.545 -1.898,7.683c-0.312,0.382 -3.875,2.986 -6.088,5.2c0.166,-0.707 2.695,-4.483 3.802,-5.72c2.675,-2.99 2.645,-5.553 1.315,-8.157c-0.741,-1.45 -3.023,-2.762 -4.868,-2.768c-1.846,-0.006 -5.551,0.396 -5.551,0.396Zm-73.452,-11.376c0.598,-0.912 1.535,-1.429 2.563,-1.842c0,0 -0.39,1.528 0.925,2.554c1.315,1.027 2.842,1.214 4.073,0.119c1.23,-1.095 1.196,-3.25 1.196,-3.25c1.697,0.617 2.812,1.986 3.581,3.802c0,-0 -1.748,1.573 -4.09,1.801c-2.342,0.227 -3.962,0.227 -5.575,-0.563c-1.612,-0.789 -2.673,-2.621 -2.673,-2.621Z" style="fill:#fff;"/></g></svg>